<svg id="2a2ffd16-5314-4fb2-9d24-5dfdaa38248e" data-name="图层 1" xmlns="http://www.w3.org/2000/svg" viewBox="0 0 200 200"><title>svg</title><path d="M100,32.89A67.11,67.11,0,1,1,32.89,100,67.18,67.18,0,0,1,100,32.89m0-6.5h0A73.6,73.6,0,0,0,26.39,100h0A73.6,73.6,0,0,0,100,173.61h0A73.6,73.6,0,0,0,173.61,100h0A73.6,73.6,0,0,0,100,26.39Z"/><path d="M193.5,6.5v187H6.5V6.5h187M200,0H0V200H200V0Z"/><path d="M29.13,33a3.9,3.9,0,1,1,3.9-3.9A3.9,3.9,0,0,1,29.13,33Z"/><path d="M29.13,28.49a.65.65,0,1,1-.64.64.65.65,0,0,1,.64-.64m0-6.5a7.15,7.15,0,1,0,7.15,7.14A7.14,7.14,0,0,0,29.13,22Z"/><path d="M170.89,33a3.9,3.9,0,1,1,3.89-3.9A3.9,3.9,0,0,1,170.89,33Z"/><path d="M170.89,28.49a.65.65,0,0,1,0,1.29.65.65,0,0,1,0-1.29m0-6.5A7.15,7.15,0,1,0,178,29.13,7.14,7.14,0,0,0,170.89,22Z"/><path d="M29.13,174.78a3.89,3.89,0,1,1,3.9-3.89A3.89,3.89,0,0,1,29.13,174.78Z"/><path d="M29.13,170.25a.64.64,0,1,1,0,1.28.64.64,0,0,1-.64-.64.64.64,0,0,1,.64-.64m0-6.5a7.14,7.14,0,1,0,7.15,7.14,7.14,7.14,0,0,0-7.15-7.14Z"/><path d="M170.89,174.78a3.89,3.89,0,1,1,3.89-3.89A3.89,3.89,0,0,1,170.89,174.78Z"/><path d="M170.89,170.25a.64.64,0,1,1-.64.64.64.64,0,0,1,.64-.64m0-6.5a7.14,7.14,0,1,0,7.14,7.14,7.14,7.14,0,0,0-7.14-7.14Z"/><polygon points="104.4 49.46 95.6 49.46 95.6 59.94 88 55.55 83.61 63.16 95.6 70.09 95.6 92.38 76.31 81.24 76.31 67.39 67.52 67.39 67.52 76.16 58.45 70.93 54.05 78.54 63.13 83.78 55.51 88.19 59.91 95.8 71.93 88.86 91.25 100.01 71.92 111.17 59.9 104.23 55.5 111.85 63.13 116.25 54.04 121.49 58.44 129.1 67.51 123.87 67.51 132.65 76.3 132.65 76.3 118.79 95.6 107.65 95.6 129.94 83.61 136.87 88 144.48 95.6 140.09 95.6 150.56 104.4 150.56 104.4 140.08 112.02 144.48 116.42 136.87 104.4 129.93 104.4 107.6 123.73 118.77 123.73 132.65 132.53 132.65 132.53 123.84 141.61 129.09 146 121.47 136.93 116.24 144.53 111.85 140.14 104.24 128.14 111.16 108.83 100.01 128.13 88.87 140.13 95.79 144.53 88.18 136.93 83.79 145.99 78.56 141.6 70.94 132.52 76.19 132.52 67.38 123.73 67.38 123.73 81.26 104.4 92.42 104.4 70.1 116.42 63.16 112.02 55.55 104.4 59.95 104.4 49.46 104.4 49.46"/></svg>