<svg id="13014f52-7eee-4242-b49c-d66ed205e02d" data-name="图层 1" xmlns="http://www.w3.org/2000/svg" viewBox="0 0 200 200"><title>svg</title><path d="M75,152a2.32,2.32,0,0,1-1.31-.38c-2-1.54-11.24-9.61-3.49-25.63,2.07-4.35,2.61-7.81,1.85-10.63a7.32,7.32,0,0,0-3.71-4.48,3.28,3.28,0,0,1-1.42-4,2.63,2.63,0,0,1,2.4-2,3,3,0,0,1,1,.25c.43,0,5,2.31,6.87,8.07,1.42,4.62.65,10-2.29,16-5.46,11.27.32,16.27,1.52,17.16a3.54,3.54,0,0,1,1,4.23A2.89,2.89,0,0,1,75,152Z" style="stroke:#000;stroke-miterlimit:10"/><path d="M92.64,145.21a2.32,2.32,0,0,1-1.31-.38c-3.93-2.69-9.49-11-3.27-24.09q2.77-6,1.63-9.61a6.55,6.55,0,0,0-3.27-4,3.15,3.15,0,0,1-1.53-4,2.63,2.63,0,0,1,2.4-2,2.7,2.7,0,0,1,1,.26,12.29,12.29,0,0,1,6.44,7.69c1.31,4.35.65,9.35-2.07,14.86-5.24,11,1.09,15.5,1.41,15.62a3.25,3.25,0,0,1,1.2,1.8A3.79,3.79,0,0,1,95,143.8a2.89,2.89,0,0,1-2.4,1.41Z" style="stroke:#000;stroke-miterlimit:10"/><path d="M56.42,145.21a2.36,2.36,0,0,1-1.31-.38c-3.92-2.69-9.49-11-3.27-24.09q2.79-6,1.64-9.61a6.58,6.58,0,0,0-3.27-4,3.14,3.14,0,0,1-1.53-4,2.63,2.63,0,0,1,2.4-2,2.75,2.75,0,0,1,1,.26,12.71,12.71,0,0,1,6.44,7.69c1.3,4.35.54,9.35-2.08,15-5.23,11,1.09,15.5,1.42,15.63a3.3,3.3,0,0,1,1.2,1.8,3.73,3.73,0,0,1-.22,2.43,2.89,2.89,0,0,1-2.4,1.28Z" style="stroke:#000;stroke-miterlimit:10"/><path d="M135.55,137.14a3.71,3.71,0,0,1-2.76-1.16,4,4,0,0,1-1.16-2.76,4.34,4.34,0,0,1,2.47-3.77h.14v-7.84l-7.4,4.21V126a3.58,3.58,0,0,1-1.89,3.34,3.35,3.35,0,0,1-2,.58,3.69,3.69,0,0,1-3.34-1.89,3.83,3.83,0,0,1-.43-3,3.4,3.4,0,0,1,1.89-2.32,3.14,3.14,0,0,1,1.88-.58,3.29,3.29,0,0,1,2,.58l6.68-3.77-6.53-3.78a7.21,7.21,0,0,1-2.18.44,4,4,0,0,1-1.88-.44,4.19,4.19,0,0,1-1.46-5.37,4.1,4.1,0,0,1,3.49-1.88,3.31,3.31,0,0,1,2,.58,3.83,3.83,0,0,1,1.89,3.34v.14l7.4,4.21v-7.84h-.15a4.3,4.3,0,0,1-2.46-3.77,3.9,3.9,0,0,1,3.91-3.92,4.1,4.1,0,0,1,2.91,1.16,4,4,0,0,1,1.16,2.76,3.87,3.87,0,0,1-2,3.34h-.44v7.54l6.39-3.62v-.15a3.59,3.59,0,0,1,1.88-3.34,3.37,3.37,0,0,1,2-.58,3.67,3.67,0,0,1,3.34,1.89,3.83,3.83,0,0,1,.44,3.05,3.4,3.4,0,0,1-1.89,2.32,3.24,3.24,0,0,1-1.89.58,3.37,3.37,0,0,1-2-.58l-6.67,3.77,6.53,3.78a7.16,7.16,0,0,1,2.17-.44,4,4,0,0,1,1.89.44,4.18,4.18,0,0,1,1.45,5.36,4.05,4.05,0,0,1-3.48,1.89,3.29,3.29,0,0,1-2-.58,3.84,3.84,0,0,1-1.89-3.34v-.14l-6.24-3.48v7.54h.15a3.55,3.55,0,0,1,2,3.34,3.93,3.93,0,0,1-3.92,4.06Z"/><path d="M185.14,48H14.86A14.86,14.86,0,0,0,0,62.86v16A14.85,14.85,0,0,0,14.86,93.71H185.14A14.85,14.85,0,0,0,200,78.86v-16A14.86,14.86,0,0,0,185.14,48ZM10.54,62a5.95,5.95,0,1,1,11.89,0v.68a5.95,5.95,0,0,1-11.89,0ZM186,85.14H14a3.43,3.43,0,1,1,0-6.85H186a3.43,3.43,0,1,1,0,6.85Z"/></svg>