<svg id="155ff64f-0b5c-4741-bd1f-766ebf9c3fda" data-name="图层 1" xmlns="http://www.w3.org/2000/svg" viewBox="0 0 175.98 175.98"><title>svg</title><path d="M176,87v2a50,50,0,0,1-4.22,5.52c-8.54,8.45-8.58,8.41-4,19.19.19.46.39.91.56,1.38,1.78,5,.88,8.87-4,10.13-10.29,2.67-13.66,8.71-12.62,18.92.54,5.3-2.24,7.32-7.63,7.79-1.65.14-3.32.08-5,.07-8.29-.07-9,.43-12,8.26-3.67,9.64-6.32,10.74-15.67,6.5-.61-.27-1.22-.53-1.82-.81-4.44-2.08-8.29-1.63-11.63,2.28A34,34,0,0,1,89,176H86c-2.67-2.49-5.56-4.79-8-7.51-3.49-4-7.26-4.49-12-2.5-12.58,5.26-13.17,5-18.06-7.58-1.74-4.46-4.54-6.78-9.4-6.44-1.49.11-3,.08-4.49.06-8-.11-10-2.15-10.18-10,0-1.17,0-2.33,0-3.49,0-7-1.08-8.55-7.65-11.08C5,123.06,4.51,122,9.17,111.15c.07-.15.14-.3.2-.45,2.54-6.1,2-8.8-2.57-13.45C4.48,94.89,2.26,92.41,0,90V86c2.59-2.81,5.07-5.73,7.78-8.41,3.25-3.22,3.84-6.86,2.24-11C9.3,64.75,8.38,63,7.59,61.14,5.14,55.53,6.29,52.55,11.92,50a35.45,35.45,0,0,1,4.65-1.8C21.77,46.69,24,43.41,24,37.88c-.1-13.58.34-14,13.92-13.94,5.22,0,8.35-2,10.2-6.88,4.67-12.43,5-12.54,17.6-7.36,4.9,2,9,1.32,12.66-2.59C80.71,4.58,83.42,2.36,86,0h4c2.43,2.27,5,4.39,7.25,6.84C101,11,105.16,11.71,110.3,9.59c12.26-5,12.38-5,17.45,7.67,1.85,4.61,4.76,6.94,9.85,6.67a51.56,51.56,0,0,1,9,.41c1.59.2,3.48.77,3.85,2.69.44,2.22-1.65,2.66-3.05,3.33C134.43,36.54,124.25,46,115.5,57.1c-8.26,10.44-16.17,21.17-24.23,31.76-3.19,4.21-3.65,4.22-5.94-.19A58.85,58.85,0,0,0,78.7,78.12c-7.54-9.09-19.31-9.44-27.51-.93-1.57,1.63-2.34,2.73.36,4,6.85,3.2,10.87,9.1,14.3,15.49A135.58,135.58,0,0,1,77.23,127c1,3.83,2.64,4.41,6,2.62,6.65-3.52,12-8.2,15.69-14.88,4.72-8.62,9.62-17.13,14.52-25.64,10.45-18.19,20.72-36.5,34.15-52.75.91-1.1,1.66-3.1,3.27-2.61,1.76.53,1.07,2.61,1,4-.26,4.87,1.41,8.2,6.23,10.12,12.85,5.1,12.9,5.24,7.74,18.39-1.8,4.61-1.33,8.27,2.48,11.64C171.3,80.51,174.28,83.24,176,87Z"/></svg>