<svg id="a5f77947-24fd-45c0-be97-c68249db5710" data-name="图层 1" xmlns="http://www.w3.org/2000/svg" viewBox="0 0 200 200"><title>svg</title><rect x="106.14" y="0.69" width="93.86" height="92.1" rx="46.05" ry="46.05"/><path d="M74,107.21H21.88C9.36,107.21,0,116.47,0,127.27v51.45a20.78,20.78,0,0,0,20.86,20.59H74a20.79,20.79,0,0,0,20.86-20.59V127.27C93.82,116.47,84.43,107.21,74,107.21Z"/><path d="M74,.69H21.88C9.36.69,0,10,0,20.76V72.21A20.78,20.78,0,0,0,20.86,92.79H74A20.78,20.78,0,0,0,94.89,72.21V20.76C93.82,10,84.43.69,74,.69Z"/><path d="M179,107.21H126.9c-11.48,0-20.86,9.26-20.86,20.06v51.45a20.78,20.78,0,0,0,20.86,20.59H179a20.78,20.78,0,0,0,20.86-20.59V127.27c.5-10.8-8.89-20.06-20.86-20.06Z"/></svg>