<svg id="cb4c7cfb-2f0f-4cf9-85e0-8f533c691f21" data-name="图层 1" xmlns="http://www.w3.org/2000/svg" viewBox="0 0 68.8 73.77"><title>svg</title><path d="M66,53.89v0C64.62,49.54,58.61,45.3,47.68,41a27.75,27.75,0,0,0,6.56-12.09c2.46-10.45-.6-17.16-3.59-20.94A21.37,21.37,0,0,0,34,0,21.31,21.31,0,0,0,17.22,7.8c-2.94,3.76-5.9,10.47-3.29,21a24.33,24.33,0,0,0,6.61,12.59C10.14,45.63,4.18,50,2.79,54.29A64.09,64.09,0,0,0,0,71.7a2.07,2.07,0,0,0,2.07,2.07H66.73A2.07,2.07,0,0,0,68.8,71.7,67,67,0,0,0,66,53.89Zm-48-26c-1.76-7.12-.89-13.18,2.51-17.53A17.14,17.14,0,0,1,34,4.14,17.19,17.19,0,0,1,47.4,10.5c3.48,4.39,4.45,10.41,2.83,17.32-1.6,5.6-4.06,9.47-7.73,12.16A2.07,2.07,0,0,0,43,43.6c1.52.56,2.89,1.1,4.18,1.63L34.6,58,22,45.34c1.1-.45,2.24-.89,3.43-1.33a2.09,2.09,0,0,0,1.34-1.72,2,2,0,0,0-.94-2C21.81,37.76,19.26,33.71,18,27.89ZM4.23,69.63A60.48,60.48,0,0,1,6.74,55.55c.78-2.45,4.81-5.45,11.13-8.43L33.14,62.39a2.08,2.08,0,0,0,1.47.61h0a2.14,2.14,0,0,0,1.47-.62L51.25,47c8.51,4,10.41,6.89,10.81,8.11a63.92,63.92,0,0,1,2.51,14.51Z"/></svg>