<svg id="5d76b17c-5457-42b4-a906-a8e15da787b2" data-name="图层 1" xmlns="http://www.w3.org/2000/svg" viewBox="0 0 200 200"><title>svg</title><path d="M102.53,3.8l6.23,5.48C98.92,14.84,90.21,20.4,80.94,24.79c-6.26,3-8.22,7.31-7.17,13.4.84,4.88-.94,8.07-4.48,11.22-6.49,5.77-12.64,11.92-18.85,18A7.51,7.51,0,0,1,43.86,70c-9.56-.86-13.74,3.84-12.25,13.46.92,5.92-4.5,7.16-7.3,10.19-2.38,2.58-5.73,2-8.43-.11A81,81,0,0,1,2,79.8c-2.79-3.51-2.79-7.15.76-10.63s6.85-6.67,13-5.76c7.12,1.06,11-3.41,9.79-10.55-.77-4.38.6-7,3.56-9.86,8.08-7.79,16.19-15.59,23.68-23.92,5.17-5.75,11.39-8.67,18.67-9.95,8.9-1.56,17.82-3,26.73-4.5C99.22,4.45,102.53,3.8,102.53,3.8Z"/><path d="M200,178.88c0,3.57-1.69,5.66-3.55,7.68-11.7,12.72-13,12.76-25.09.66Q118.31,134.32,65.19,81.48c-3.1-3.07-3-4.75.1-7.5A128.13,128.13,0,0,0,77.55,61.69c2.9-3.39,4.62-2.89,7.54,0q48.22,48.53,96.68,96.8c5.12,5.12,10.22,10.25,15.36,15.35C198.72,175.45,200.08,177.08,200,178.88Z"/><path d="M166,6.73c-4.92,5.07-9.3,10.08-14.19,14.51-5.85,5.3-5.27,12.75-7.23,19.34-.45,1.55,1.16,2.52,2.17,3.53,4.47,4.49,9.05,8.87,13.38,13.49,1.75,1.87,3.38,2,5.72,1.53,8.17-1.57,15.48-4.35,20.81-11.3,2.91-3.81,6.52-7.07,10.22-11,3.84,12.57-3.6,32.62-22,39.33-8.27,3-16.72,3.35-24.95.14-3.09-1.2-4.79-.72-7,1.57-9.1,9.46-9.17,9.38-18.46.1-8-8-8.11-8.12,0-15.78,3-2.86,4.21-5.09,2.63-9.66C118.75,28.19,138.22,3.28,163,6.09,163.9,6.19,164.74,6.45,166,6.73Z"/><path d="M11.78,163.88c.77-22.23,18-35.54,38.39-30.88,2.92.67,4.66.48,6.85-2.18,4.35-5.3,9.6-9.85,14.38-14.81,1.42-1.47,2.36-1.66,3.88-.06,4.75,5,9.61,9.86,14.52,14.68,1.66,1.63,1.75,2.8,0,4.45-4.84,4.64-9.26,9.76-14.43,14-2.8,2.28-3.14,4.14-2.38,7.29,2.94,12.22-1.33,22.31-10.6,30-9.78,8.11-21.2,9.14-32.67,4.07-11-4.85-16.8-13.89-18-25.86C11.72,163.84,11.78,163.11,11.78,163.88Zm32.08-19.32c-10.35-.14-18.78,7.81-18.78,17.73A18.33,18.33,0,0,0,43.21,180.8c9.51.17,17.93-8.1,18.22-17.91A18,18,0,0,0,43.86,144.56Z"/></svg>