<svg id="5041f19f-6201-4b36-aaec-78da5094f804" data-name="图层 1" xmlns="http://www.w3.org/2000/svg" viewBox="0 0 200 200"><title>svg</title><path d="M181.33,85.56a49.21,49.21,0,0,0-4-9.73l11.82-14.57-8.51-8.51-8.51-8.5L157.54,56.07a49.24,49.24,0,0,0-9.73-4l-1.94-18.67H121.81l-2,18.67a49.86,49.86,0,0,0-9.71,4L95.56,44.25l-8.51,8.5-8.51,8.51,11.81,14.6a49.22,49.22,0,0,0-4,9.67l-18.68,2v24.06l18.68,2a49.57,49.57,0,0,0,4,9.68l-11.81,14.6,8.51,8.5,8.51,8.51L110.15,143a49,49,0,0,0,9.68,4l2,18.68h24.06l2-18.68a48.92,48.92,0,0,0,9.7-4l14.57,11.82,8.51-8.51,8.51-8.5-11.82-14.58a49.21,49.21,0,0,0,4-9.73L200,111.57V87.51Zm-47.49,41.28a27.3,27.3,0,1,1,27.29-27.3A27.3,27.3,0,0,1,133.84,126.84Z"/><path d="M63.26,59.89a25.4,25.4,0,0,0,1.94-4.22L80.75,54l0-7.34,0-7.33L65.13,37.72a26.52,26.52,0,0,0-4.66-8l6.3-14.28-6.36-3.65L54,8.13,44.92,20.81a26.24,26.24,0,0,0-9.27,0L26.4,8.24l-6.34,3.69-6.34,3.69,6.41,14.27a26.17,26.17,0,0,0-4.6,8L0,39.61,0,47l0,7.34,15.55,1.55a26.28,26.28,0,0,0,4.65,8L14,78.17l6.37,3.64,6.37,3.64,9.14-12.67a26.24,26.24,0,0,0,9.27,0l9.22,12.61,6.34-3.69L67,78,60.6,63.71A26,26,0,0,0,63.26,59.89ZM33.71,58.44a13.42,13.42,0,1,1,18.31-5A13.42,13.42,0,0,1,33.71,58.44Z"/><path d="M63.26,166.31a25.78,25.78,0,0,0,1.94-4.22l15.55-1.7,0-7.34,0-7.34-15.56-1.58a26.59,26.59,0,0,0-4.66-8l6.3-14.29-6.36-3.64L54,114.55l-9.12,12.68a26,26,0,0,0-9.27,0L26.4,114.66l-6.34,3.69L13.72,122l6.41,14.27a26.52,26.52,0,0,0-2.65,3.8,26.9,26.9,0,0,0-2,4.24L0,146l0,7.34,0,7.33,15.55,1.56a26.28,26.28,0,0,0,4.65,8L14,184.58l6.37,3.65,6.37,3.64,9.14-12.67a26.47,26.47,0,0,0,9.27,0l9.22,12.61,6.34-3.69L67,184.38,60.6,170.13A26,26,0,0,0,63.26,166.31Zm-29.55-1.45a13.42,13.42,0,1,1,18.31-5A13.42,13.42,0,0,1,33.71,164.86Z"/></svg>