<svg id="1b20bf02-dfc0-4b74-a227-5874e2021b4a" data-name="图层 1" xmlns="http://www.w3.org/2000/svg" viewBox="0 0 79.57 74.81"><title>svg</title><path d="M69,0H10.36A10.37,10.37,0,0,0,0,10.36V51.81A10.37,10.37,0,0,0,10.36,62.17h4.56V72.74A2.07,2.07,0,0,0,17,74.81a2.11,2.11,0,0,0,1.27-.43L34.07,62.17H69.21A10.37,10.37,0,0,0,79.57,51.81V10.57A10.45,10.45,0,0,0,69,0Zm6.42,51.81A6.22,6.22,0,0,1,69.21,58H33.36a2,2,0,0,0-1.26.43l-13,10.07V60.09A2.07,2.07,0,0,0,17,58H10.36a6.22,6.22,0,0,1-6.22-6.21V10.36a6.23,6.23,0,0,1,6.22-6.22H69a6.36,6.36,0,0,1,6.42,6.43Z"/><circle cx="39.37" cy="46.63" r="2.28"/><path d="M41.24,13.88a6,6,0,0,0-1.87-.2A10.55,10.55,0,0,0,33,16a9.92,9.92,0,0,0-3.52,7.66A2.23,2.23,0,0,0,31.5,25.7a2.44,2.44,0,0,0,2.07-2.28,6.66,6.66,0,0,1,2.07-4.56,5,5,0,0,1,3.73-1.45c.42,0,.83.2,1.25.2a6.28,6.28,0,0,1,4.55,4.77A5.81,5.81,0,0,1,41.24,29a6.07,6.07,0,0,0-3.94,5.6V37.3a2.07,2.07,0,0,0,4.14,0V34.81a1.77,1.77,0,0,1,.63-1.24l.2-.21h.21A9.86,9.86,0,0,0,49.32,22,9.69,9.69,0,0,0,41.24,13.88Z"/></svg>