<svg id="ef638b58-f00e-4303-a2fc-aecc017f10d8" data-name="图层 1" xmlns="http://www.w3.org/2000/svg" viewBox="0 0 201.14 176"><title>svg</title><path d="M182.29,0H18.86A18.87,18.87,0,0,0,0,18.86V157.14A18.87,18.87,0,0,0,18.86,176H182.29a18.86,18.86,0,0,0,18.85-18.86V18.86A18.86,18.86,0,0,0,182.29,0ZM77.51,15.71h46.08V53.43H77.51Zm0,53.43h46.08v37.72H77.51ZM61.8,160.29H20.43a4.74,4.74,0,0,1-4.72-4.72v-33H61.8Zm0-53.43H15.71V69.14H61.8Zm0-53.43H15.71v-33a4.74,4.74,0,0,1,4.72-4.72H61.8Zm61.83,106.86H77.51V122.57h46.08v37.72Zm61.8,0H139.35V122.57h46.08Zm0-53.43H139.35V69.14h46.08Zm0-53.43H139.35V15.71h46.08Z"/></svg>