<svg id="1c029e54-e6bc-431f-b00a-6d145a4febab" data-name="图层 1" xmlns="http://www.w3.org/2000/svg" viewBox="0 0 200 200"><title>svg</title><path d="M194.51,35.54V152.87a31.5,31.5,0,0,1-.9,7.55c0,.16-.08.31-.11.47C190.14,178,178,188.82,160.64,188.94c-40.53.28-81.06.15-121.6.05-10.69,0-19.46-4.48-26.38-12.65-2.66-3.13-4.07-6.82-5.42-10.54a29.2,29.2,0,0,1-1.75-9.92V33.3a28.87,28.87,0,0,1,2.4-11.55c2.53-5.77,5.83-11,11.41-15C23.68,3.68,28.49,2.24,33.4.94A28.71,28.71,0,0,1,40.72,0H159.61a29,29,0,0,1,7.74,1.05c7.87,2.17,14.89,5.77,20.24,12.7,3.31,4.28,4.55,9.2,5.88,14.11A29.37,29.37,0,0,1,194.51,35.54ZM99.38,178.24q29.07,0,58.15,0c16.71,0,26-9.15,26-25.73q.09-57.84,0-115.68c0-16.61-9.32-25.85-26-25.87q-57.84-.09-115.68,0C25.55,11,16.3,20.28,16.28,36.52q-.06,58.14,0,116.29c0,16.29,9.18,25.39,25.57,25.42C61,178.27,80.2,178.24,99.38,178.24Z"/><path d="M102,200c-13.7,0-27.4,0-41.1,0-2,0-5.13.78-5-2.5.06-2.58,2.8-2.36,4.79-2.36q42,0,84,0c1.91,0,4.6-.41,4.41,2.61s-2.91,2.23-4.77,2.24C130.25,200,116.15,200,102,200Z"/><path d="M99.4,168.28c-39.95-.18-73.24-33.65-73.15-73.54.09-40.25,34.07-74.2,73.77-73.68,40.66.53,73.65,33.74,73.48,74S139.66,168.47,99.4,168.28Zm.17-8c36,.09,65.65-29.29,65.79-65.21S136,29.38,100.09,29.15,34.57,58.51,34.46,94.5A65.46,65.46,0,0,0,99.57,160.24Z"/><path d="M94.18,70.65c0-2.42-.2-4.86,0-7.25,1-10.24,8.14-17.94,17.8-19.4,12-1.82,24.7,3.76,28.55,12.55,4,9,.24,19-9.11,23.22-4.18,1.88-8.84,2.66-13.15,4.29-1.78.67-5,.59-4.46,3.7s3.24,2.28,5.44,2.29c7.28,0,14.54.49,21.3,3.51a20.6,20.6,0,0,1,12.11,22.16c-2.29,13.78-9.11,22.54-18.25,23.45-10.85,1.08-19.25-6.15-20.94-18a65.84,65.84,0,0,0-1.49-8.3c-.34-1.26-.21-3.7-2.45-3.26-2,.4-3.8,1.62-3.36,4.24.85,5,.32,10.07-.26,15.09-1.24,10.75-8,18.37-17.36,19.77-12.76,1.9-25.51-4.16-29.5-14-4.2-10.4,2.69-21.45,15.1-24.17,2.94-.65,6-1.05,8.82-2,1.45-.46,4.21-.35,3.51-3.1-.57-2.21-1.84-4-4.77-3.48-5,.89-10.07.34-15.06-.37-10.49-1.48-17.16-7.61-18.64-17-2-12.38,2.87-24.39,11.66-28.91C70,50.44,81.6,55.94,85.26,68c1.17,3.85,1.89,7.83,3,11.67.4,1.34.58,3.58,3,2.89a3.63,3.63,0,0,0,2.89-4c-.12-2.62,0-5.24,0-7.87ZM75.92,95c3.66-.17,5.88-.35,8.09-.35s5.4-1.19,6,1.12c1.32,4.7,5.74,7.15,7.2,11.48.5,1.48-1.12,2.48-2.19,3.35a30.56,30.56,0,0,1-11.94,5.52c-3.88,1-8,1.14-11.62,3.06-5.57,2.93-7.76,8.4-5.44,13.63s11.1,9.57,18.57,9.11,11.29-3.58,13.48-10.78c1.91-6.31,1.36-12.78.84-19.2-.31-3.85.48-6.16,4.55-7.86,6.58-2.76,7.55-7.83,3.38-13.33-4-5.31-3.83-6.56,1.71-10.15,4.11-2.66,8.75-4,13.42-5.27a30.77,30.77,0,0,0,7.3-2.72c6.63-3.82,7.38-12.73,1.25-17.21-6.54-4.79-14-6.45-21.66-3-6.94,3.13-7.82,9.65-7.9,16.34a19,19,0,0,0,.07,4.83c2.09,8.08.29,13.73-8.06,17.45-3.57,1.59-5.4,1.77-7.54-1a28.13,28.13,0,0,1-4.83-10.31c-.89-3.51-1.52-7.1-2.69-10.51-1.54-4.44-4.45-7.8-9.46-8.25S60.1,63.29,57.64,67.3c-8.49,13.87-1.91,26.51,14.29,27.52C73.74,94.93,75.55,95,75.92,95Zm36.57,3.35c5.18,5.64,7.25,12.22,8,19.31a21.74,21.74,0,0,0,2.47,8.64c2.41,4.22,6.09,6.5,11,5.55,6.1-1.16,11.06-8.89,11.52-17.44.43-7.75-2.59-12.86-9.32-15.08A43.35,43.35,0,0,0,112.49,98.37Z"/><path d="M103.58,96.23a3.53,3.53,0,0,1-4,3.51c-2.35-.12-3.53-1.68-3.39-4s1.51-3.66,3.89-3.47S103.54,93.94,103.58,96.23Z"/></svg>