<svg id="875fd63a-708e-4528-b1f4-225d69675c2f" data-name="图层 1" xmlns="http://www.w3.org/2000/svg" viewBox="0 0 200 200"><title>svg</title><path d="M171.67,141.86H28.17a17.73,17.73,0,0,1-7.1-1.49c-1.48-.65-3-1.31-4.39-2.05A29.45,29.45,0,0,1,2.41,122.14a35.46,35.46,0,0,1-2.33-13C.09,93.35.14,77.54,0,61.73a3.55,3.55,0,0,1,3.56-3.59q96.43.13,192.88,0A3.55,3.55,0,0,1,200,61.73c-.14,15.75-.09,31.5-.08,47.26a36.35,36.35,0,0,1-1.67,11.06,31.14,31.14,0,0,1-6.56,12.09c-3.61,3.93-8.15,6.06-12.74,8.15A17.75,17.75,0,0,1,171.67,141.86Zm-71-26.84H20c-1.36,0-2.71,0-4.06,0-2.22,0-4.69,0-4.7,3a5,5,0,0,0,4,5.06,34.79,34.79,0,0,0,6.93.35q78,0,156.08,0c1.54,0,3.09-.07,4.64,0,3.68.07,6.32-1.86,6.36-5.31,0-4.2-3.81-3-6.23-3C155.61,115,128.15,115,100.69,115ZM100,63.66q-40.95,0-81.9,0c-7,0-9.65,2.2-9.78,8.56q-.3,14.5,0,29c.13,6,2.66,8.35,8.8,8.35q82.77.1,165.53,0c6.87,0,9.2-2.62,9.25-9.71,0-8.32,0-16.65,0-25,0-9.32-1.93-11.29-11.18-11.3Q140.37,63.64,100,63.66Zm80.42,69.84c-53.77,1.65-107,1.68-161.34-.05,4.89,3.35,9.5,4.92,14.52,4.92q66.41.09,132.8,0C171.36,138.35,176.19,137.18,180.41,133.5Z"/><path d="M100,107.34q-38.34,0-76.68,0c-9.21,0-11.24-2.07-11.27-11.32,0-6.39-.09-12.78,0-19.17.12-7.17,2.37-9.64,9.3-9.64q78.71-.09,157.42,0c6.79,0,9,2.31,9.11,9.16s.09,13.94,0,20.91c-.08,7.75-2.31,10-10.09,10C151.9,107.38,126,107.34,100,107.34Zm83.4-10.64c-.58-3.35-2.54-5.25-5.87-5.15a4.94,4.94,0,0,0-5.15,5.13,5.14,5.14,0,0,0,5.47,5.46C181.28,102.14,182.91,99.87,183.41,96.7Zm-20.52,3.52a3.41,3.41,0,0,0,3.26-3.78,3.1,3.1,0,0,0-3.44-3.08,3.19,3.19,0,0,0-3.4,3.72C159.44,99,160.67,100.16,162.89,100.22Zm-13.31.07a3.24,3.24,0,0,0,3.17-3.47c0-2.34-1.32-3.62-3.54-3.49a3.2,3.2,0,0,0-3.2,3.39C146,99,147.49,100.06,149.58,100.29Z"/></svg>