<svg id="221cb0dd-07f9-4bff-8c5e-ad38d44ed69d" data-name="图层 1" xmlns="http://www.w3.org/2000/svg" viewBox="0 0 200 200"><title>svg</title><path d="M100,199.58q-41.56,0-83.15,0a46,46,0,0,1-7.43-.4A11,11,0,0,1,0,188c0-6,3.75-10.69,9.69-11.61a44.8,44.8,0,0,1,6.86-.35q83.45,0,166.89,0a44.8,44.8,0,0,1,6.86.35c6.06.93,9.77,5.46,9.7,11.56a11.12,11.12,0,0,1-10,11.35,55.69,55.69,0,0,1-7.43.32Q141.3,199.6,100,199.58Z"/><path d="M153.94,157.94c5.19-5.82,9.65-11.43,12.54-18.15,7.78-18.14,7.16-35.84-3.5-52.52-7.69-12-13.61-24.31-12.43-39,1.78-22.38,13.26-37.88,33.57-47.17-3.75,6-7.76,11.8-10.09,18.56-5.55,16.1-4.17,31.65,4.08,46.39,5.49,9.81,11.44,19.11,13.27,30.71C195.88,125.3,172.22,152.44,153.94,157.94Z"/><path d="M21.66,157.42c7.81-9.92,13.88-20.49,15.58-33.31,1.8-13.46-1.16-25.79-8.17-37.21-4.51-7.33-9.19-14.58-11.22-23.06C11.61,37.8,25.43,11.21,51.42.41c-3.12,4.85-6.5,8.52-8.66,13-8.67,18.06-8.48,36.05,2,53,8.09,13.17,14.67,26.38,12.87,42.31C55,131.82,41.77,147.16,21.66,157.42Z"/><path d="M118,1c-9.46,10.68-13.83,23.19-14.23,37.24C103.41,51,108.21,62,115,72.46c21.88,33.55,4.69,69.28-24.25,84.42-.79.41-1.66.64-3.6,1.37,3-3.95,5.42-6.81,7.45-9.92,13.1-20,13.52-40.38,1.68-61.07-2.75-4.81-6.06-9.35-8.31-14.38C75.57,45.08,89.2,12.08,118,1Z"/></svg>