<?xml version="1.0" standalone="no"?><!DOCTYPE svg PUBLIC "-//W3C//DTD SVG 1.1//EN" "http://www.w3.org/Graphics/SVG/1.1/DTD/svg11.dtd"><svg t="1604655191739" class="icon" viewBox="0 0 1024 1024" version="1.1" xmlns="http://www.w3.org/2000/svg" p-id="1942" xmlns:xlink="http://www.w3.org/1999/xlink" width="200" height="200"><defs><style type="text/css"></style></defs><path d="M652.47 801.93c-5.25 0-10.46-2.32-13.97-6.76-6.1-7.71-4.79-18.9 2.92-25 12.23-9.67 23.66-19.5 33.99-29.22 7.16-6.73 18.42-6.39 25.16 0.76 6.74 7.16 6.39 18.42-0.76 25.16-11.07 10.42-23.28 20.92-36.31 31.22a17.712 17.712 0 0 1-11.03 3.84z" fill="#333333" p-id="1943"></path><path d="M512 889.61c-2.81 0-5.61-0.66-8.17-1.99-4.03-2.08-99.91-52.04-197.3-136.73-57.56-50.05-103.51-101.85-136.58-153.94-42.02-66.2-63.33-133.13-63.33-198.94 0-59.21 23.47-119.49 64.38-165.39 20.53-23.03 44.22-41.25 70.4-54.13 27.92-13.74 57.34-20.71 87.42-20.71 41.7 0 82.94 13.25 119.27 38.32 25.14 17.35 46.85 39.47 63.91 64.93 17.06-25.47 38.77-47.58 63.91-64.93 36.33-25.07 77.57-38.32 119.27-38.32 30.08 0 59.5 6.97 87.42 20.71 26.18 12.88 49.87 31.1 70.4 54.13 40.91 45.9 64.38 106.19 64.38 165.39 0 97.77-47.04 196.89-139.81 294.62-6.77 7.13-18.03 7.42-25.16 0.65-7.13-6.77-7.42-18.03-0.65-25.16C838.04 577.23 881.79 486.35 881.79 398c0-50.59-20.18-102.24-55.36-141.71-36.17-40.58-82.79-62.93-131.25-62.93-34.45 0-68.7 11.07-99.05 32.03-28.44 19.63-52.66 47.67-68.19 78.95-3.01 6.05-9.18 9.88-15.94 9.88s-12.93-3.83-15.94-9.88c-15.53-31.28-39.75-59.32-68.19-78.95-30.36-20.95-64.61-32.03-99.05-32.03-48.47 0-95.08 22.35-131.25 62.93-35.18 39.47-55.36 91.12-55.36 141.71 0 58.84 19.38 119.25 57.59 179.55 31.14 49.13 74.72 98.25 129.54 146 78.65 68.5 158.33 114.6 183.05 128.24 12.47-6.27 38.39-19.87 68.6-39.01 8.3-5.26 19.29-2.79 24.56 5.51 5.26 8.3 2.79 19.3-5.51 24.56-44.35 28.1-79.05 44.4-80.51 45.08a17.734 17.734 0 0 1-7.53 1.68z" fill="#333333" p-id="1944"></path></svg>