<svg class="icon" viewBox="0 0 1024 1024" version="1.1" xmlns="http://www.w3.org/2000/svg" xmlns:xlink="http://www.w3.org/1999/xlink" width="35px" >
  <path d="M835.038892 286.08687l-27.084839 27.115555c-14.962036 14.977395-39.213784 14.977395-54.173772 0l-81.259635-81.347689c-14.959988-14.975347-14.959988-39.254739 0-54.234182l27.084838-27.112483c29.919977-29.954789 78.428592-29.954789 108.348569 0l27.084839 27.112483c29.918953 29.956837 29.918953 78.514598 0 108.466316z m-40.628794-94.902907c-22.440495-22.465068-58.821188-22.465068-81.261683 0l-13.543955 13.557266 81.261683 81.345641 13.543955-13.555218c22.438447-22.467116 22.438447-58.884669 0-81.347689zM442.284672 462.33849l81.259635 81.345641 203.149087-203.362055c7.480506-7.491769 19.607404-7.491769 27.086887 0 7.480506 7.48153 7.480506 19.62481 0 27.112483L537.087238 584.359c-7.480506 7.487673-19.605356 7.487673-27.086886 0L401.655879 475.897803c-7.480506-7.491769-7.480506-19.62481 0-27.117602l216.690994-216.925465c7.480506-7.487673 19.607404-7.487673 27.086886 0 7.480506 7.489721 7.480506 19.629929 0 27.113508L442.284672 462.33849z m45.511703 157.808374c2.712272 10.257283-3.410562 20.82378-13.673989 23.610795l-148.658934 40.36156c-0.393172 0.107508-0.773033-0.004096-1.167229 0.076791-1.246068 0.263139-2.493161 0.243685-3.790424 0.249828-1.314669 0.004096-2.581215 0.030717-3.844689-0.228326-0.386005-0.076791-0.761771 0.034812-1.147775-0.067577-0.794535-0.21092-1.376102-0.746412-2.117395-1.048458-1.244021-0.502728-2.42456-0.998288-3.533429-1.746749-1.029005-0.695218-1.869615-1.509207-2.731726-2.376438-0.864159-0.860064-1.6761-1.700674-2.366199-2.72763-0.746412-1.107844-1.241973-2.288384-1.742652-3.530357-0.30307-0.744365-0.84061-1.330027-1.051531-2.128657-0.101365-0.388053 0.009215-0.765866-0.067576-1.155967-0.254947-1.253236-0.228326-2.512615-0.226279-3.818068 0.006143-1.310573-0.011263-2.574048 0.2529-3.833427 0.080887-0.388053-0.028669-0.763818 0.076791-1.151871L342.318652 511.812629c2.78292-10.276737 13.344297-16.405715 23.58827-13.687299 10.243973 2.712272 16.292063 13.241909 13.507096 23.51455L347.829203 638.241989l116.475147-31.622698c10.262403-2.781896 20.779753 3.27029 23.492025 13.527573z m43.954373-396.100277H243.835218c-21.202617 0-38.388532 17.188987-38.388532 38.39058v568.619835l42.703185-42.814789c2.150159-2.747084 4.838882-4.950486 8.157295-6.203721 2.560737-1.084295 5.282224-1.489753 8.027261-1.356648H435.778905c0.004096 0 0.008191 0.004096 0.011263 0.004095h307.098021c21.201593 0 38.388532-17.188987 38.388532-38.388532V435.185051c0-10.599261 8.59347-19.19273 19.194778-19.19273s19.194778 8.59347 19.194778 19.19273v307.111332c0 42.402163-34.374902 76.775017-76.777065 76.775017H339.807062v-0.004096h-69.637513l-69.032396 69.212601c-2.153231 2.754252-4.847073 4.961748-8.174701 6.214984a18.565089 18.565089 0 0 1-20.393748-4.020798c-3.733086-3.743325-5.510551-8.648759-5.451165-13.520406-0.002048-0.10546-0.059385-0.19249-0.059386-0.29795v-614.218568c0-42.404211 34.372854-76.779113 76.777065-76.779113h287.91553c10.601309 0 19.194778 8.595517 19.194778 19.194778 0 10.600285-8.59347 19.193754-19.194778 19.193755z" p-id="1393" fill="#333333"></path>
</svg>